<?xml version="1.0" encoding="UTF-8"?>
<svg id="Capa_2" data-name="Capa 2" xmlns="http://www.w3.org/2000/svg" viewBox="0 0 19.19 11.56">
  <g id="arrow" fill="white">
    <path id="arrow-trace" d="m2.03,0c.24-.01.43.09.6.25.67.66,1.35,1.32,2.02,1.98,1.63,1.6,3.26,3.2,4.89,4.8.05.04.07.04.11,0,1.5-1.47,2.99-2.93,4.49-4.4.8-.78,1.59-1.56,2.39-2.34.11-.11.23-.22.39-.26.29-.07.57-.04.79.18.43.42.85.84,1.27,1.27.17.17.22.38.21.61-.02.2-.1.37-.25.51-.74.74-1.49,1.48-2.23,2.21-.66.66-1.32,1.31-1.99,1.97-.67.66-1.33,1.32-2,1.99-.67.66-1.34,1.33-2,1.99-.18.18-.36.35-.53.53-.2.21-.45.28-.72.25-.16-.02-.31-.1-.43-.22-.12-.12-.24-.24-.36-.36-.68-.67-1.36-1.35-2.04-2.02-.65-.65-1.3-1.29-1.95-1.94-.68-.68-1.36-1.35-2.05-2.03-.67-.66-1.33-1.32-2-1.99-.13-.13-.26-.26-.4-.39C.08,2.43,0,2.23,0,2c0-.2.08-.39.23-.53.41-.42.83-.83,1.24-1.24C1.62.08,1.8,0,2.03,0Z"/>
  </g>
</svg>