<?xml version="1.0" encoding="UTF-8"?>
<svg id="Capa_2" data-name="Capa 2" xmlns="http://www.w3.org/2000/svg" viewBox="0 0 262.68 122.57">
  <defs>
    <style>
      .cls-1 {
        fill: #fff;
      }
    </style>
  </defs>
  <g id="logo">
    <path id="wave" class="cls-1" d="m0,69.52s27.47,25.43,40.09,29.31c13.19,4.05,23.74,8.14,58.02-4.38,33.95-12.4,77.21-6.53,77.21-6.53,12.19,1.69,27.86,5.02,45.2,11.84,17.86,7.02,31.94,15.55,42.16,22.81-15.03-5.32-30.07-10.64-45.1-15.96-9.28-2.27-17.8-3.84-25.32-4.95-11.46-1.68-20.62-2.28-25.5-2.52-8.69-.44-16.42-.4-22.94-.16-5.77.19-11.84.64-18.18,1.43-22.69,2.83-40.52,15.23-57.07,15.83-9.29.34-17.39.44-31.65-3.69-8.43-2.44-17.93-11.37-22.68-16.5-4.75-5.13-10.02-15.21-14.24-26.52Z"/>
    <g id="building">
      <polygon class="cls-1" points="157.22 15.73 171.07 0 171.07 37.68 157.22 22.45 157.22 15.73"/>
      <polygon class="cls-1" points="175.32 42.92 175.32 0 197.27 12.26 197.27 67.25 175.32 42.92"/>
    </g>
    <g id="building-2" data-name="building">
      <polygon class="cls-1" points="201.63 16.52 213.3 0 213.3 84.96 201.63 72.3 201.63 16.52"/>
      <polygon class="cls-1" points="218.04 0 243.16 16.52 243.16 91.48 218.04 91.48 218.04 0"/>
    </g>
    <g id="window">
      <rect id="window__item" class="cls-1" x="131.21" y="58.25" width="7.91" height="8.11"/>
      <rect id="window__item-2" data-name="window__item" class="cls-1" x="141.89" y="58.45" width="7.91" height="8.11"/>
      <rect id="window__item-3" data-name="window__item" class="cls-1" x="141.89" y="47.37" width="7.91" height="8.11"/>
      <rect id="window__item-4" data-name="window__item" class="cls-1" x="131.21" y="47.37" width="7.91" height="8.11"/>
    </g>
    <polygon id="roof" class="cls-1" points="146.04 16.52 78 19.68 62.57 42.23 62.57 28.38 48.73 28.38 48.73 60.43 30.53 86.14 88.29 90.49 140.11 26.41 190.35 81.79 208.55 86.54 146.04 16.52"/>
  </g>
</svg>